HIERARCHY
ROOT Hips
{
     OFFSET 1.88212 96.90440 -13.34250
     CHANNELS 6 Xposition Yposition Zposition Zrotation Xrotation Yrotation
     JOINT Spine
     {
          OFFSET 0.00000 11.89050 0.00000
          CHANNELS 3 Zrotation Xrotation Yrotation
          JOINT Spine1
          {
               OFFSET -0.00000 25.65740 0.12766
               CHANNELS 3 Zrotation Xrotation Yrotation
               JOINT HEad
               {
                    OFFSET 0.00000 8.73416 0.01134
                    CHANNELS 3 Zrotation Xrotation Yrotation
                    End Site
                    {
                         OFFSET -0.29000 12.77420 2.51395
                    }
               }
               JOINT LeftShoulder1
               {
                    OFFSET 8.99000 -0.36225 -0.22000
                    CHANNELS 3 Zrotation Xrotation Yrotation
                    JOINT LeftArm
                    {
                         OFFSET 10.28270 -0.00338 0.32212
                         CHANNELS 3 Zrotation Xrotation Yrotation
                         JOINT LeftForeArm
                         {
                              OFFSET 32.76690 0.09914 -1.42434
                              CHANNELS 3 Zrotation Xrotation Yrotation
                              JOINT LeftHand
                              {
                                   OFFSET 27.56430 0.08536 1.02216
                                   CHANNELS 3 Zrotation Xrotation Yrotation
                                   End Site
                                   {
                                        OFFSET 16.74430 -0.60000 1.50291
                                   }
                              }
                         }
                    }
               }
               JOINT RightShoulder
               {
                    OFFSET -8.99000 -0.36225 -0.22000
                    CHANNELS 3 Zrotation Xrotation Yrotation
                    JOINT RightArm
                    {
                         OFFSET -10.28270 -0.00338 0.32212
                         CHANNELS 3 Zrotation Xrotation Yrotation
                         JOINT RightForeArm
                         {
                              OFFSET -32.89710 0.09914 -1.42434
                              CHANNELS 3 Zrotation Xrotation Yrotation
                              JOINT RightHand
                              {
                                   OFFSET -27.49210 0.08536 1.02216
                                   CHANNELS 3 Zrotation Xrotation Yrotation
                                   End Site
                                   {
                                        OFFSET -16.63120 -0.60000 1.50291
                                   }
                              }
                         }
                    }
               }
          }
     }
     JOINT LeftUpLeg
     {
          OFFSET 8.94580 -8.66707 0.10165
          CHANNELS 3 Zrotation Xrotation Yrotation
          JOINT LeftLeg
          {
               OFFSET 0.00000 -44.42270 1.37270
               CHANNELS 3 Zrotation Xrotation Yrotation
               JOINT LeftFoot
               {
                    OFFSET -0.25355 -42.09240 -1.46059
                    CHANNELS 3 Zrotation Xrotation Yrotation
                    JOINT LeftToes
                    {
                         OFFSET -0.04000 -4.41509 8.49910
                         CHANNELS 3 Zrotation Xrotation Yrotation
                         End Site
                         {
                              OFFSET 0.08000 -0.04745 9.77979
                         }
                    }
               }
          }
     }
     JOINT RightUpLeg
     {
          OFFSET -8.94580 -8.66707 0.10165
          CHANNELS 3 Zrotation Xrotation Yrotation
          JOINT RightLeg
          {
               OFFSET 0.00000 -44.42270 1.37270
               CHANNELS 3 Zrotation Xrotation Yrotation
               JOINT RightFoot
               {
                    OFFSET 0.25355 -42.09240 -1.46059
                    CHANNELS 3 Zrotation Xrotation Yrotation
                    JOINT RightToes
                    {
                         OFFSET 0.04000 -4.41509 8.49910
                         CHANNELS 3 Zrotation Xrotation Yrotation
                         End Site
                         {
                              OFFSET -0.08000 -0.13745 9.77979
                         }
                    }
               }
          }
     }
}
MOTION
Frames: 13
Frame Time: 0.01667
79.84771 88.64877 23.12397 2.77240 1.89837 -170.69299 2.50312 17.56158 13.31019 -0.00771 0.06141 -0.00015 -17.48515 8.35453 18.52926 0.92344 2.49483 0.41387 -157.24171 -69.82690 -132.37248 -57.50517 49.89301 -90.86444 5.40276 4.48998 2.62061 20.54061 2.60816 19.55112 58.10360 -34.37051 58.29777 22.27012 42.51007 120.15561 -1.97593 12.41155 -17.25403 19.75596 -10.87354 8.68197 13.08998 6.01775 -4.75527 66.05256 -0.00624 0.00192 -90.87882 -2.68606 -2.53531 -18.50446 2.08608 -3.08907 0.98176 18.60372 2.14824 10.07313 0.01535 -0.02657 -2.98300 -24.48801 -4.77756 
79.92812 88.40672 22.74426 2.83707 1.74648 -170.70837 3.00433 18.06101 13.39861 -0.00789 0.04756 0.03015 -17.08819 7.99080 17.19644 0.46587 3.07746 -1.24112 -156.13774 -69.40897 -131.54504 -59.65755 51.24611 -90.06094 6.56435 -1.78572 0.00853 18.38410 2.00029 17.70564 61.83490 -33.97517 57.41486 19.12427 42.57627 123.52277 4.44789 12.84034 -25.79175 19.99897 -11.07910 9.44201 12.21220 6.19077 -3.78742 66.76717 -0.00691 0.00906 -91.45258 -4.15614 -13.09980 -18.72749 2.28993 -1.89748 1.94413 21.41993 0.49310 6.73641 0.00297 -0.08719 -2.92334 -21.12507 0.43825 
79.94691 88.12915 22.30371 2.69216 1.95526 -170.18112 3.45105 18.88530 13.05317 -0.00929 0.04332 0.02900 -16.32557 7.70161 15.31797 -0.14917 3.53272 -1.74409 -149.12302 -68.42046 -124.79372 -62.29389 52.99141 -88.61780 8.11824 -8.35551 -3.74635 13.77143 2.22477 16.45777 68.11119 -34.62873 57.66018 15.06449 41.65623 126.77274 13.30290 12.24749 -34.00951 20.13939 -11.32853 9.51664 11.33433 7.03057 -2.33186 67.27892 -0.00664 0.01012 -92.78392 -6.07825 -26.21736 -19.38328 3.05258 -0.73221 3.76641 25.33020 -1.49937 2.36154 0.00741 -0.16332 -1.07562 -21.74987 3.98018 
79.96539 87.88155 21.94218 1.65979 3.49083 -167.95767 3.75927 20.58757 11.18463 -0.01079 0.03900 0.03036 -14.47527 8.13599 11.77920 -1.17530 4.14577 0.50071 -128.97523 -64.43981 -104.99886 -65.43323 54.77146 -85.01953 12.38600 4.75562 -4.72073 0.55896 5.34583 15.74014 84.62122 -35.91639 64.15816 8.08542 38.62498 128.34534 25.42390 12.20611 -38.06461 19.50167 -11.85562 7.35814 9.54566 9.72449 0.74567 68.53919 -0.01975 0.04185 -92.60348 -5.35637 -28.10382 -21.35177 5.53928 0.58622 8.33488 32.27122 -4.62458 -4.74557 0.12686 -0.43832 6.03719 -31.47945 4.75244 
80.06181 87.64384 21.74347 -0.38942 6.14184 -164.36357 3.41347 23.85279 9.43507 -0.02957 0.10181 0.10885 -11.12402 8.48059 5.37873 -1.41365 4.42399 1.80384 -117.66759 -60.37513 -94.06530 -75.10191 55.05578 -74.51501 14.92112 7.17346 -12.07011 -12.06698 6.57866 19.20072 96.90837 -38.36724 70.39064 0.57080 31.07017 125.22244 30.27609 10.33907 -41.42131 17.95991 -12.50161 3.41048 6.79088 13.92451 5.73285 53.29231 0.10469 -0.70650 -76.22842 -6.59186 -37.45920 -24.45845 9.21658 2.52082 16.31817 38.05302 -10.50786 -12.67616 0.15346 -0.45098 10.99414 -37.61507 6.04583 
80.33121 87.37440 21.72728 -2.46012 8.40430 -161.07497 2.67398 27.13096 9.42236 -0.02078 0.09911 0.10152 -6.68871 8.47882 -3.27535 -1.05641 4.58761 1.88844 -110.91154 -57.33929 -87.64259 -80.72997 54.58624 -69.74215 18.59251 15.20336 -14.66400 -12.47892 6.56712 18.46827 91.33488 -37.78005 68.96944 -7.57146 21.09999 122.38166 36.37723 8.20031 -40.31997 16.06957 -14.37524 -0.29094 1.65253 18.96665 12.96736 47.87811 0.11885 -0.33036 -66.99848 -6.30329 -44.52711 -27.87638 11.93505 5.95385 25.91013 40.41486 -18.23927 -20.42258 0.15501 -0.23817 16.42576 -42.47149 6.41674 
80.80470 87.07829 21.94039 -4.52887 10.32762 -158.12436 1.61197 30.44104 10.83677 -0.00380 0.09025 0.08312 -1.54015 7.71000 -13.71087 -3.35534 10.34372 11.11391 -107.52499 -43.81121 -87.96445 -80.63255 51.45356 -66.26547 17.25142 13.00169 -21.07506 -23.21880 5.02131 22.11131 95.92292 -40.19277 68.51736 -15.78305 10.10131 119.26074 37.68216 -0.07500 -44.40683 14.08826 -17.12745 -3.67410 -3.90426 24.73505 22.03558 42.47857 0.15026 -0.33194 -58.54668 -7.14228 -53.77725 -31.02388 14.12427 9.56484 35.82373 42.91632 -26.70365 -21.75121 0.11854 -0.04805 15.31282 -47.27895 6.78757 
81.49561 86.75115 22.39033 -6.56489 11.93340 -155.52518 0.14195 33.75015 13.47717 -0.00477 0.09248 0.06998 3.34241 5.75146 -23.87439 -1.78707 9.45999 7.97506 -104.70046 -43.75519 -84.97849 -80.14089 49.97888 -65.69208 18.20605 15.11032 -23.60497 -22.49300 5.61777 18.80037 86.60300 -36.73742 64.93140 -23.14622 -0.40330 113.18810 43.22038 -8.25914 -46.33040 11.70231 -20.74112 -6.84705 -12.05751 30.39880 33.62631 34.99261 0.23561 -0.50130 -46.62562 -9.21504 -62.10188 -33.73132 15.86701 13.17826 44.22544 42.62283 -34.12111 -22.83677 0.02854 -0.01220 14.13574 -50.02490 6.84935 
82.34335 86.39528 23.06269 -8.51357 13.22795 -153.25639 -1.82927 37.03260 17.11013 -0.00499 0.09654 0.05534 7.72975 2.70932 -33.35023 -0.17299 8.28057 4.54145 -102.42005 -43.82018 -82.30518 -79.29545 49.55136 -66.54288 17.57559 13.29743 -24.76713 -21.82918 5.98595 15.14194 78.29563 -32.44072 63.08881 -29.67558 -9.02241 104.53203 44.99508 -20.84571 -49.66132 9.37074 -24.79144 -9.67672 -20.34190 35.67792 46.92828 26.79932 0.37363 -0.50054 -35.87730 -11.60465 -71.09925 -36.12009 17.21870 16.66657 52.48524 42.70522 -42.42699 -27.21614 0.10030 -0.15131 17.74001 -53.70539 8.40165 
83.25098 86.02360 23.87767 -10.30554 14.21855 -151.29472 -3.61139 39.33786 20.21593 0.01064 0.01234 -0.02413 11.27310 0.08944 -41.17529 0.99260 7.90030 1.73561 -100.62570 -43.90400 -79.97949 -78.03294 49.76186 -67.96240 18.18880 13.81326 -24.59839 -21.60401 7.07260 12.08270 71.23978 -27.30253 62.41682 -35.33103 -16.15635 94.13874 47.80273 -17.76424 -43.48691 7.75047 -28.01749 -11.81170 -26.53335 40.30175 57.95352 16.11851 0.54262 -0.41082 -25.55258 -13.30739 -78.68309 -38.22685 18.25068 19.91681 58.62801 41.39273 -48.77007 -26.30147 -0.00220 0.01097 15.78132 -55.59371 9.15684 
84.14623 85.65727 24.72196 -11.86900 14.93781 -149.62646 -5.13709 40.78986 22.63356 0.00765 0.00295 -0.03355 14.18888 -2.08170 -47.54951 1.88445 8.08700 -0.70957 -99.37131 -43.93798 -78.08423 -76.41641 50.30073 -69.40731 17.67780 12.00677 -24.17892 -21.54115 8.00615 8.67053 65.15092 -20.54774 63.09075 -41.16983 -22.36950 81.88802 49.04918 -21.01995 -43.76952 6.77989 -30.42719 -13.31384 -31.20208 44.19309 66.62423 4.15791 0.59171 -0.19672 -15.38528 -13.95796 -84.86887 -40.06948 19.05499 22.85862 63.11172 39.61535 -53.51624 -27.68542 -0.00831 -0.01629 16.75422 -56.96307 10.14897 
85.00261 85.31287 25.49462 -13.15180 15.44495 -148.24709 -6.32444 41.54012 24.23281 0.01156 -0.00490 -0.04140 16.56952 -3.57237 -52.48092 2.99568 8.80206 -2.75288 -99.28017 -42.32913 -73.22844 -71.46482 54.16042 -72.90047 27.91880 6.09425 -8.44885 -20.18466 9.52070 4.96270 59.18974 -14.54162 67.22096 -46.35986 -25.13574 66.95108 50.16451 -13.73457 -38.60535 6.25247 -32.02102 -14.33916 -34.49827 47.04961 73.04375 -8.12581 0.50954 0.01510 -5.04512 -13.73474 -89.72235 -41.61425 19.70856 25.45207 66.32375 37.71301 -56.96873 -27.59318 0.00091 0.00468 16.44246 -57.78260 10.99924 
85.83617 85.00879 26.14116 -14.13959 15.80698 -147.15240 -8.20500 42.71430 25.16051 -0.00921 0.09367 -0.08208 18.45362 -4.31271 -54.12012 4.08536 8.69965 -3.71976 -99.72977 -41.43373 -70.80731 -67.96161 56.06495 -75.21216 19.95481 6.73795 -19.70620 -17.92369 9.84238 2.13217 55.28719 -10.50872 69.10334 -47.25430 -27.55384 55.91879 37.55342 -9.23300 -23.06808 5.95860 -32.80949 -15.04993 -36.33400 48.73236 77.32072 -20.11572 0.36002 0.14599 5.46655 -13.00719 -93.30890 -42.83273 20.26532 27.68616 68.63966 35.93084 -59.46168 -27.91594 0.00217 0.00344 16.85641 -58.45683 11.77610 
